<?xml version="1.0" encoding="UTF-8"?>
<svg id="Calque_1" xmlns="http://www.w3.org/2000/svg" version="1.1" viewBox="0 0 1000 922">
  <!-- Generator: Adobe Illustrator 29.7.0, SVG Export Plug-In . SVG Version: 2.1.1 Build 138)  -->
  <defs>
    <style>
      .st0 {
        fill: #050505;
      }
    </style>
  </defs>
  <path class="st0" d="M808.95,438.03c-107.99,13.94-193.54,99.26-207.52,206.97-2.22,17.09-16.01,31.14-33.29,31.14h-178.18c-17.27,0-31.39-14.01-30.28-31.21,6.92-107.52,49.31-205.41,115.63-282.15-77.14,66.79-175.79,109.51-284.2,116.44-17.24,1.1-31.29-12.97-31.29-30.21v-177.69c0-17.23,14.08-30.99,31.21-33.21,107.99-13.94,193.54-99.26,207.52-206.97,2.22-17.09,16.01-31.14,33.29-31.14h178.18c17.28,0,31.39,14.01,30.28,31.21-6.92,107.52-49.31,205.41-115.63,282.15,77.14-66.79,175.79-109.51,284.2-116.44,17.24-1.1,31.29,12.97,31.29,30.21v177.69c0,17.24-14.08,30.99-31.21,33.21Z"/>
  <path class="st0" d="M952.48,788.31h-31.99l-47.2,132.15h27.32l7.7-22.47h56.5l7.7,22.47h27.48l-47.52-132.15ZM916.19,874.8l20.23-59.08,20.37,59.08h-40.59ZM891.08,788.31l-50.66,85.87v46.28h-25.66v-46.28l-50.82-85.87h29.74l33.91,59.61,33.91-59.61h29.58ZM706.97,788.31h-57.33v132.15h57.33c18.33,0,32.63-4.93,42.58-15.08,10.06-10.17,14.91-25.41,14.91-45.3v-11.39c0-20.09-4.79-35.38-14.76-45.46-9.95-10.05-24.31-14.92-42.73-14.92ZM675.46,811.35h31.52c11.14,0,18.88,3.03,23.69,8.67h0s0,.01,0,.01c4.86,5.61,7.51,14.71,7.51,27.74v13.24c0,12.92-2.64,22.03-7.52,27.76-4.81,5.65-12.5,8.67-23.54,8.67h-31.67v-86.08ZM557.88,788.31l-47.2,132.15h27.32l7.7-22.47h56.5l7.7,22.47h27.48l-47.52-132.15h-31.99ZM553.58,874.8l20.22-59.08,20.37,59.08h-40.59ZM414.06,828.32c2.59-5.57,6.57-9.99,11.98-13.27,5.46-3.25,12.3-4.93,20.65-4.93,6.84,0,12.67,1.24,17.57,3.64,4.95,2.42,8.64,5.62,11.19,9.58v.02s.02.01.02.01c2.67,4,4.19,8.42,4.58,13.29l.2,8.87h26.6l-.21-7.65v-.05s0-.05,0-.05c-.74-9.55-3.56-18.19-8.48-25.88-4.83-7.83-11.7-13.96-20.51-18.42-8.86-4.48-19.2-6.68-30.95-6.68-13.21,0-24.62,2.67-34.13,8.12-9.47,5.42-16.68,12.89-21.59,22.39-4.89,9.35-7.31,19.84-7.31,31.41v10.93c0,11.77,2.37,22.41,7.15,31.86h0s0,.02,0,.02c4.91,9.49,12.12,16.96,21.59,22.38,9.51,5.45,20.91,8.12,34.13,8.12,11.85,0,22.24-2.2,31.11-6.68h0s0,0,0,0c8.81-4.56,15.67-10.7,20.5-18.43,4.91-7.79,7.73-16.53,8.47-26.18v-.05s0-.05,0-.05l.21-7.65h-26.6l-.2,9.01c-.39,4.88-1.87,9.36-4.45,13.47-2.54,3.95-6.24,7.15-11.19,9.58-4.9,2.4-10.78,3.64-17.73,3.64-12.33,0-21.35-3.52-27.42-10.25-6.07-6.94-9.17-15.92-9.17-27.1v-13.85c0-7.13,1.33-13.49,3.97-19.14ZM334.12,844.53l-25.72-5.69h-.03s-.03-.01-.03-.01c-7.37-1.41-12.69-3.39-16.14-5.82-3.24-2.28-4.83-5.34-4.83-9.4v-.92c0-2.26.49-4.11,1.41-5.65.91-1.53,2.31-2.86,4.3-3.94h0s0,0,0,0c4.16-2.31,10.72-3.59,19.95-3.59,10.27,0,17.18,1.54,21.17,4.26h0s0,.01,0,.01c3.92,2.61,6.02,6.81,6.02,13.07v5.74h26.12v-5.13c0-12.85-4.44-22.93-13.47-29.93l-.43-.33c-9.13-7.05-22.43-10.42-39.58-10.42s-29.29,3.06-38.3,9.46c-9.12,6.48-13.64,15.91-13.64,27.99,0,9.18,2.84,16.87,8.62,22.89,5.73,5.98,14.2,10.14,25.16,12.66l25.41,5.85h.03s.03.01.03.01c6.21,1.22,10.93,2.52,14.24,3.89,3.24,1.33,5.44,3.02,6.79,4.97v.02s.03.02.03.02c1.3,1.78,2.07,4.43,2.07,8.18v1.39c0,5.3-2.04,8.95-6.07,11.31h0s0,.01,0,.01c-4.12,2.47-11.05,3.86-21.12,3.86-12.1,0-20.4-1.9-25.31-5.33-4.73-3.3-7.28-8.77-7.28-16.94v-6.36h-26.28v4.98c0,15.12,4.73,26.86,14.46,34.83l.02.02c9.77,7.81,24.54,11.53,43.93,11.53,18.31,0,32.04-3.03,40.79-9.48,8.9-6.56,13.15-17.03,13.15-30.89,0-10.73-2.93-19.2-9.11-25.04-6.02-5.69-14.89-9.65-26.37-12.05ZM174.22,788.31l-47.2,132.15h27.32l7.7-22.47h56.5l7.7,22.47h27.48l-47.52-132.15h-31.99ZM169.92,874.8l20.23-59.08,20.37,59.08h-40.59ZM30.4,828.32c2.6-5.57,6.57-9.99,11.98-13.27,5.46-3.25,12.3-4.93,20.65-4.93,6.84,0,12.67,1.24,17.57,3.64,4.95,2.42,8.64,5.62,11.19,9.58v.02s.02.01.02.01c2.67,4,4.19,8.42,4.58,13.29l.2,8.87h26.6l-.21-7.65v-.05s0-.05,0-.05c-.74-9.55-3.56-18.19-8.48-25.88-4.83-7.83-11.7-13.96-20.51-18.42-8.86-4.48-19.2-6.68-30.95-6.68-13.21,0-24.62,2.67-34.13,8.12-9.47,5.42-16.68,12.89-21.59,22.39-4.89,9.35-7.31,19.84-7.31,31.41v10.93c0,11.77,2.37,22.41,7.15,31.86h0s0,.02,0,.02c4.91,9.49,12.12,16.96,21.59,22.38,9.51,5.45,20.91,8.12,34.13,8.12,11.85,0,22.24-2.2,31.11-6.68h0s0,0,0,0c8.81-4.56,15.67-10.7,20.5-18.43,4.91-7.79,7.73-16.53,8.47-26.18v-.05s0-.05,0-.05l.21-7.65h-26.6l-.2,9.01c-.39,4.88-1.87,9.36-4.45,13.47-2.54,3.95-6.24,7.15-11.19,9.58-4.9,2.4-10.78,3.64-17.73,3.64-12.33,0-21.35-3.52-27.42-10.25-6.07-6.94-9.17-15.92-9.17-27.1v-13.85c0-7.13,1.34-13.49,3.97-19.14Z"/>
</svg>